# xmcd
# 
# Track frame offsets:
#     150
#     17003
#     34733
#     49719
#     65115
#     80763
#     95823
#     110240
#     124807
#     138674
#     149152
#     163788
# 
# Disc length: 2386
# 
# Revision: 1
# Processed by: cddbd v1.5.2PL0 Copyright (c) Steve Scherf et al.
# Submitted via: fre:ac v1.0.31
# 
DISCID=be09500c
DTITLE=Ricchi E Poveri - Le Canzoni La Nostra Storia CD2
DYEAR=2011
DGENRE=Disco
TTITLE0=Voulez-vous danser
TTITLE1=Hasta la vista
TTITLE2=Piccolo amore
TTITLE3=Amarsi un po
TTITLE4=Ninna Nanna
TTITLE5=Bello l'amore
TTITLE6=Magnifica serata
TTITLE7=Cocco Bello Africa
TTITLE8=Sei la sola che amo
TTITLE9=Stasera canto
TTITLE10=Pubblicita
TTITLE11=C'e che sto bene
EXTD=
EXTT0=
EXTT1=
EXTT2=
EXTT3=
EXTT4=
EXTT5=
EXTT6=
EXTT7=
EXTT8=
EXTT9=
EXTT10=
EXTT11=
PLAYORDER=
